<svg width="32" height="32" viewBox="0 0 32 32" fill="none" xmlns="http://www.w3.org/2000/svg">
<path d="M16 30.3333C8.09332 30.3333 1.66666 23.9066 1.66666 16C1.66666 8.09329 8.09332 1.66663 16 1.66663C23.9067 1.66663 30.3333 8.09329 30.3333 16C30.3333 23.9066 23.9067 30.3333 16 30.3333ZM16 3.66663C9.19999 3.66663 3.66666 9.19996 3.66666 16C3.66666 22.8 9.19999 28.3333 16 28.3333C22.8 28.3333 28.3333 22.8 28.3333 16C28.3333 9.19996 22.8 3.66663 16 3.66663Z" fill="white" fill-opacity="0.6"/>
<path d="M17.68 21.7066C17.4267 21.7066 17.1733 21.6133 16.9733 21.4133L12.2667 16.7066C11.88 16.32 11.88 15.68 12.2667 15.2933L16.9733 10.5866C17.36 10.2 18 10.2 18.3867 10.5866C18.7733 10.9733 18.7733 11.6133 18.3867 12L14.3867 16L18.3867 20C18.7733 20.3866 18.7733 21.0266 18.3867 21.4133C18.2 21.6133 17.9467 21.7066 17.68 21.7066Z" fill="white" fill-opacity="0.6"/>
</svg>
