<svg width="32" height="32" viewBox="0 0 32 32" fill="none" xmlns="http://www.w3.org/2000/svg">
<path d="M16 30.3333C8.09332 30.3333 1.66666 23.9066 1.66666 16C1.66666 8.09329 8.09332 1.66663 16 1.66663C23.9067 1.66663 30.3333 8.09329 30.3333 16C30.3333 23.9066 23.9067 30.3333 16 30.3333ZM16 3.66663C9.19999 3.66663 3.66666 9.19996 3.66666 16C3.66666 22.8 9.19999 28.3333 16 28.3333C22.8 28.3333 28.3333 22.8 28.3333 16C28.3333 9.19996 22.8 3.66663 16 3.66663Z" fill="white" fill-opacity="0.6"/>
<path d="M14.32 21.7066C14.0667 21.7066 13.8133 21.6133 13.6133 21.4133C13.2267 21.0266 13.2267 20.3866 13.6133 20L17.6133 16L13.6133 12C13.2267 11.6133 13.2267 10.9733 13.6133 10.5866C14 10.2 14.64 10.2 15.0267 10.5866L19.7333 15.2933C20.12 15.68 20.12 16.32 19.7333 16.7066L15.0267 21.4133C14.8267 21.6133 14.5733 21.7066 14.32 21.7066Z" fill="white" fill-opacity="0.6"/>
</svg>
