<svg width="197" height="230" viewBox="0 0 197 230" fill="none" xmlns="http://www.w3.org/2000/svg">
<path d="M125.127 212.895C126.48 212.726 126.987 212.895 127.495 212.726C158.438 194.077 179.406 167.629 187.353 132.027C189.382 123.042 189.044 113.717 186.677 104.562C181.773 84.8965 165.371 71.3337 145.249 70.147C134.766 69.4688 124.62 70.6556 115.489 76.4198C114.813 81.3363 114.306 86.2528 113.291 90.8302C111.6 98.2897 107.711 104.393 100.778 108.123C95.7056 111.005 90.6328 111.005 87.9274 108.292C84.3764 104.732 84.3765 99.9851 86.5747 96.0858C89.6183 90.6607 93.3383 85.5746 97.2274 80.8276C99.7637 77.776 103.146 75.233 106.189 72.69C103.315 53.5326 85.2219 45.3949 63.5783 53.3631C62.9019 56.0756 62.2255 58.9577 61.38 61.6702C57.9982 71.6728 51.7419 79.3018 41.5964 82.8621C37.7073 84.2183 33.48 84.727 30.0982 81.1667C27.5618 78.4542 27.5618 73.7072 30.2673 68.9602C34.6637 61.5007 41.2582 56.2451 48.3601 51.6677C50.8964 50.1419 53.4328 48.6161 55.9692 47.2598C52.5873 17.5913 26.04 -3.43102 0 8.4364C0.169091 6.23245 -1.03306e-05 4.36757 0.676354 3.35036C1.52181 2.16362 3.38181 1.48549 4.90363 1.14642C19.2764 -1.56614 32.6346 0.129206 43.6255 10.6403C51.9109 18.4389 57.491 27.9329 61.211 38.7831C61.7183 40.3089 62.2255 41.8347 62.9019 43.3605C62.9019 43.5301 63.24 43.6996 63.9164 44.2082C65.4382 44.0387 67.2982 44.0387 69.1582 43.6996C91.8164 40.1394 103.653 46.2426 114.136 67.4344C116.166 66.7563 118.533 66.0781 120.731 65.2305C133.751 60.8226 146.771 60.4835 159.96 64.8914C181.435 72.0119 195.3 90.4911 196.822 113.887C197.667 126.602 195.469 138.808 190.904 150.676C179.744 179.327 161.482 201.875 134.089 216.625C132.736 217.473 131.215 218.151 129.862 218.998C129.693 219.168 129.524 219.507 129.016 220.524C134.766 221.88 140.177 221.372 145.587 221.033C150.829 220.863 156.24 220.355 161.989 220.016C161.482 224.423 159.115 226.119 156.24 227.136C152.858 228.153 149.477 229.509 146.095 229.679C136.964 230.018 127.664 230.188 118.364 229.679C111.093 229.17 109.064 225.271 112.276 219.337C119.209 206.792 126.311 194.246 133.413 181.701C134.596 179.666 136.118 177.971 137.978 175.597C141.191 179.327 139.838 182.04 138.655 184.583C133.92 193.738 129.693 202.893 125.127 212.895ZM35.1709 76.0807C46.8382 74.5549 54.1091 67.0954 54.6164 56.5842C46.8382 61.6702 39.3982 66.2477 35.1709 76.0807ZM92.3237 102.359C102.3 99.9851 107.035 93.2037 106.02 82.8621C99.5947 88.2872 94.0146 93.3732 92.3237 102.359Z" fill="#F66B0E"/>
</svg>
