<svg width="60" height="60" viewBox="0 0 60 60" fill="none" xmlns="http://www.w3.org/2000/svg">
<path d="M20.225 29.075H8.5C8.7 17.4 11 15.475 18.175 11.225C19 10.725 19.275 9.67499 18.775 8.82499C18.3 7.99999 17.225 7.72499 16.4 8.22499C7.95 13.225 5 16.275 5 30.8V44.275C5 48.55 8.475 52 12.725 52H20.225C24.625 52 27.95 48.675 27.95 44.275V36.775C27.95 32.4 24.625 29.075 20.225 29.075Z" fill="#F66B0E"/>
<path d="M47.275 29.075H35.55C35.75 17.4 38.05 15.475 45.225 11.225C46.05 10.725 46.325 9.67499 45.825 8.82499C45.325 7.99999 44.275 7.72499 43.425 8.22499C34.975 13.225 32.025 16.275 32.025 30.825V44.3C32.025 48.575 35.5 52.025 39.75 52.025H47.25C51.65 52.025 54.975 48.7 54.975 44.3V36.8C55 32.4 51.675 29.075 47.275 29.075Z" fill="#F66B0E"/>
</svg>
